<svg xmlns="http://www.w3.org/2000/svg" viewBox="0 0 456 456"><defs><style>.cls-1,.cls-2{fill:none;stroke:#000;stroke-linecap:round;stroke-width:8px;}.cls-1{stroke-linejoin:round;}.cls-2{stroke-miterlimit:128;}</style></defs><title>instagram_2</title><g id="Capa_2" data-name="Capa 2"><g id="Capa_1-2" data-name="Capa 1"><path class="cls-1" d="M324,4H132A128,128,0,0,0,4,132V324A128,128,0,0,0,132,452H324A128,128,0,0,0,452,324V132A128,128,0,0,0,324,4Z"/><path class="cls-1" d="M228,324a96,96,0,1,1,67.88-28.12A96,96,0,0,1,228,324Z"/><path class="cls-2" d="M340,100h0a16,16,0,0,1,16-16h0a16,16,0,0,1,16,16h0a16,16,0,0,1-16,16h0A16,16,0,0,1,340,100Z"/></g></g></svg>