<?xml version="1.0" encoding="UTF-8"?>
<svg id="Layer_1" data-name="Layer 1" xmlns="http://www.w3.org/2000/svg" viewBox="0 0 150 150">
  <defs>
    <style>
      .cls-1 {
        fill: #fff;
      }

      .cls-2 {
        fill: #e53027;
      }

      .cls-3 {
        fill: #1d1d1b;
      }
    </style>
  </defs>
  <polygon class="cls-1" points="24.37 77.62 65.62 77.62 78.68 90.66 24.37 90.66 24.37 77.62"/>
  <path class="cls-1" d="M77.66,7.87C40.29,7.87,10,38.17,10,75.54s30.29,67.66,67.66,67.66,67.66-30.29,67.66-67.66S115.03,7.87,77.66,7.87Zm34.72,116.87c-10.84,8.16-23.77,12.48-37.38,12.48-34.3,0-62.21-27.92-62.21-62.22,0-13.58,4.3-26.49,12.43-37.32l1.45-1.93L114.31,123.29l-1.93,1.45Zm12.28-12.26l-1.45,1.92L35.6,26.79l1.92-1.45c10.86-8.21,23.83-12.56,37.48-12.56,34.31,0,62.22,27.91,62.22,62.22,0,13.66-4.35,26.61-12.56,37.48Zm-5.39-21.82h4.43v-13.04h-4.43v13.04Zm-12.82-42.79c-2.83,0-3.38,.03-5.76,.08,.72-1.78,1.42-4.65,1.42-6.68,0-8.49-6.93-15.39-15.43-15.39v4.41c6.05,0,10.94,4.91,10.94,10.96,0,2.34-.42,4.14-1.87,6.6-1.54,2.6-.78,4.5,2.87,4.5h7.83c7.07,0,12.8,5.73,12.8,12.8v10.19h4.45v-10.19c0-9.82-7.57-17.28-17.25-17.28Zm.1,10.26c-2.12,0-10.92,.04-14.39,.04s-6.02-2.7-6.02-6.02c0-.78,.53-2.52,.87-3.08,1.83-2.98,.62-5.07-2.3-5.07h-2.37c-4.93,0-8.93-4-8.93-8.93s4-8.98,8.93-8.98v-4.68c-7.55,0-13.66,6.11-13.66,13.66s6.07,13.67,13.61,13.67c-.37,1.06-.61,2.22-.61,3.41,0,5.79,4.69,10.46,10.48,10.46h14.39c3.33,0,6.03,2.67,6.03,6,0,1.35-.02,6.73-.02,6.73h4.45l.03-6.73c0-5.79-4.7-10.48-10.49-10.48Zm6.01,32.53h4.45v-13.04h-4.45v13.04Zm-10.12,0h7.86v-13.04h-20.91l13.05,13.04Z"/>
  <g>
    <path class="cls-3" d="M65.62,77.62H24.37v13.04h54.31l-13.06-13.04Zm23.77,0l13.05,13.04h7.86v-13.04h-20.91Z"/>
    <path class="cls-3" d="M119.27,77.62v13.04h4.43v-13.04h-4.43Z"/>
    <path class="cls-3" d="M112.56,77.62v13.04h4.45v-13.04h-4.45Z"/>
    <path class="cls-3" d="M106.45,47.87c-2.83,0-3.38,.03-5.76,.08,.72-1.78,1.42-4.65,1.42-6.68,0-8.49-6.93-15.39-15.43-15.39v4.41c6.05,0,10.94,4.91,10.94,10.96,0,2.34-.42,4.14-1.87,6.6-1.54,2.6-.78,4.5,2.87,4.5h7.83c7.07,0,12.8,5.73,12.8,12.8v10.19h4.45v-10.19c0-9.82-7.57-17.28-17.25-17.28Z"/>
    <path class="cls-3" d="M106.55,58.13c-2.12,0-10.92,.04-14.39,.04s-6.02-2.7-6.02-6.02c0-.78,.53-2.52,.87-3.08,1.83-2.98,.62-5.07-2.3-5.07h-2.37c-4.93,0-8.93-4-8.93-8.93s4-8.98,8.93-8.98v-4.68c-7.55,0-13.66,6.11-13.66,13.66s6.07,13.67,13.61,13.67c-.37,1.06-.61,2.22-.61,3.41,0,5.79,4.69,10.46,10.48,10.46h14.39c3.33,0,6.03,2.67,6.03,6,0,1.35-.02,6.73-.02,6.73h4.45l.03-6.73c0-5.79-4.7-10.48-10.49-10.48Z"/>
    <path class="cls-2" d="M75,0C33.65,0,0,33.64,0,75s33.65,75,75,75,75-33.65,75-75S116.36,0,75,0ZM12.79,75c0-13.58,4.3-26.49,12.43-37.32l1.45-1.93L114.31,123.29l-1.93,1.45c-10.84,8.16-23.77,12.48-37.38,12.48-34.3,0-62.21-27.92-62.21-62.22Zm110.42,39.4L35.6,26.79l1.92-1.45c10.86-8.21,23.83-12.56,37.48-12.56,34.31,0,62.22,27.91,62.22,62.22,0,13.66-4.35,26.61-12.56,37.48l-1.45,1.92Z"/>
  </g>
</svg>